<?xml version="1.0" encoding="UTF-8"?>
<svg width="87px" height="87px" viewBox="0 0 87 87" version="1.1" xmlns="http://www.w3.org/2000/svg" xmlns:xlink="http://www.w3.org/1999/xlink">
    <g stroke="none" stroke-width="1" fill="none" fill-rule="evenodd">
        <g transform="translate(1.000000, 1.000000)">
            <circle stroke="#FFFFFF" cx="42.5" cy="42.5" r="42.5"></circle>
            <g transform="translate(26.379310, 28.333333)" fill="#FFFFFF" fill-rule="nonzero">
                <path d="M19.2635372,19.0345501 L19.2349138,16.0147831 C19.2349138,14.7839715 19.1299624,13.920508 18.9200566,13.4243669 C18.7101507,12.9282258 18.4430018,12.5537403 18.1186018,12.3008991 C17.7942019,12.048058 17.3576996,11.9216393 16.809082,11.9216393 C16.2604644,11.9216393 15.0988437,12.3509857 13.3241851,13.2096915 C13.0856557,13.3528092 12.9616223,13.4863836 12.9520811,13.6104189 L12.9520811,21.3101091 C12.9520811,22.2737678 13.4672968,22.8271477 14.4977438,22.9702654 C14.9461791,23.0370536 15.1703933,23.1443902 15.1703933,23.2922784 C15.1703933,23.4401666 15.1226882,23.5236507 15.0272764,23.542733 L8.64426185,23.542733 C8.5488501,23.5236507 8.50114494,23.4568634 8.50114494,23.3423693 C8.50114494,23.161087 8.7253592,23.0370536 9.17379445,22.9702654 C10.2042414,22.8271477 10.7194572,22.2737678 10.7194572,21.3101091 L10.7194572,14.1828866 C10.7194572,12.684922 9.79397702,11.935951 7.94298895,11.935951 C7.26556549,11.935951 6.32577379,12.3366743 5.12358567,13.1381331 C4.81826805,13.3384978 4.59405379,13.5245479 4.45093615,13.6962891 L4.45093615,21.3101091 C4.45093615,22.2737678 4.96615191,22.8271477 5.99659887,22.9702654 C6.44503412,23.0370536 6.66924838,23.1443902 6.66924838,23.2922784 C6.66924838,23.4401666 6.62154322,23.5236507 6.52613147,23.542733 L0.143116918,23.542733 C0.0477051623,23.5236507 0,23.4568634 0,23.3423693 C0,23.161087 0.224214263,23.0370536 0.672649515,22.9702654 C1.70309648,22.8271477 2.21831223,22.2833089 2.21831223,21.3387325 L2.21831223,13.095198 C2.21831223,12.6944686 1.99886848,12.4177787 1.55997441,12.2651199 C1.3691509,12.1983317 1.1640187,12.1434707 0.944571659,12.1005354 C0.725124621,12.0576001 0.551000779,12.0170507 0.422194908,11.978886 C0.293389038,11.9407213 0.212290262,11.9049425 0.178896148,11.8715484 C0.145502033,11.8381542 0.128805226,11.7665965 0.128805226,11.656873 C0.128805226,11.5471495 0.20036297,11.4541244 0.343480603,11.377795 L3.99296202,9.66039197 C4.10745612,9.60314492 4.17901387,9.57452182 4.20763739,9.57452182 C4.36983738,9.57452182 4.45093615,9.68901421 4.45093615,9.91800242 L4.45093615,12.2937433 C4.46047733,12.3509903 4.4962562,12.3796134 4.55827384,12.3796134 C4.62029148,12.3796134 4.77771852,12.3128262 5.03055967,12.1792497 C5.28340082,12.0456733 5.6149517,11.8572379 6.02522225,11.6139379 C6.4354928,11.3706379 6.97694639,11.0867922 7.64959927,10.7623922 C8.32225215,10.4379923 9.03544433,10.2757947 9.7891972,10.2757947 C11.0009265,10.2757947 11.8691605,10.795781 12.3939251,11.8357691 C12.5942898,12.2555809 12.7755694,12.4344752 12.9377694,12.3724576 C13.0999694,12.3104399 13.3528067,12.1935623 13.6962891,12.0218211 C14.507289,11.6210917 15.3278178,11.2299094 16.1579001,10.8482624 C16.9879823,10.4666154 17.6749367,10.2757947 18.2187837,10.2757947 C20.4227952,10.2757947 21.5247845,12.2841821 21.5247845,16.301017 L21.3959793,20.480031 L21.3959793,21.3101091 C21.3959793,22.0543208 21.7680795,22.5409135 22.5122912,22.7699017 C22.82715,22.8748546 23.1300778,22.9487976 23.4210836,22.9917329 C23.7120895,23.0346682 23.9029102,23.0752176 23.9935513,23.1133823 C24.0841925,23.151547 24.1295124,23.2278752 24.1295124,23.3423693 C24.1295124,23.4568634 24.0818072,23.5236507 23.9863955,23.542733 L17.08816,23.542733 C16.9927483,23.5236507 16.9450431,23.4568634 16.9450431,23.3423693 C16.9450431,23.161087 17.1692574,23.0370536 17.6176926,22.9702654 C18.6385984,22.8271477 19.1490436,22.2356037 19.1490436,21.1956156 C19.225373,20.7185568 19.2635372,19.9982088 19.2635372,19.0345501 Z" id="Path"></path>
                <path d="M21.6230581,16.6874327 C21.508564,16.6874327 21.4513178,16.9211879 21.4513178,17.3887055 L21.4513178,21.3673559 C21.4513178,22.3023911 21.9665336,22.8462299 22.9969805,22.9988887 C23.4454158,23.0561358 23.66963,23.1610871 23.66963,23.313746 C23.66963,23.4664048 23.6219249,23.542733 23.5265131,23.542733 L17.1434986,23.542733 C17.0480868,23.5236507 17.0003816,23.4568634 17.0003816,23.3423693 C17.0003816,23.1706282 17.2245959,23.0561358 17.6730312,22.9988887 C18.7034781,22.8462299 19.2186939,22.3023911 19.2186939,21.3673559 L19.2186939,3.52067619 C19.2186939,3.11994681 18.9992501,2.84325687 18.5603561,2.69059806 C18.3695325,2.62380983 18.1644003,2.56894889 17.9449533,2.5260136 C17.7255063,2.48307831 17.5513824,2.44252893 17.4225766,2.40436422 C17.2937707,2.36619952 17.2126719,2.33042065 17.1792778,2.29702654 C17.1458837,2.26363242 17.1291869,2.19207468 17.1291869,2.08235116 C17.1291869,1.97262764 17.2007446,1.87960257 17.3438622,1.80327317 L20.9933437,0.0858701509 C21.1078378,0.0286230974 21.1793955,0 21.208019,0 C21.370219,0 21.4513178,0.11449239 21.4513178,0.343480603 L21.4513178,14.626549 C21.5276472,14.9032431 21.627828,15.0654407 21.7518633,15.1131466 C21.8758986,15.1608524 22.0094731,15.184705 22.1525907,15.184705 C22.4292848,15.184705 22.8848691,14.9676465 23.5193573,14.533523 C24.1538454,14.0993995 24.7286926,13.6128069 25.2439161,13.0737305 C25.7591396,12.534654 26.0167475,12.1625538 26.0167475,11.9574185 C26.0167475,11.7522832 25.9261077,11.6234793 25.7448253,11.5710028 C25.563543,11.5185264 25.3607961,11.4803622 25.1365784,11.4565093 C24.9123608,11.4326564 24.7096139,11.3944922 24.5283315,11.3420158 C24.3470492,11.2895393 24.2564094,11.1631206 24.2564094,10.9627559 C24.2564094,10.7623912 24.4520006,10.6622104 24.8431888,10.6622104 L30.2959433,10.6622104 C30.6298845,10.6622104 30.7968526,10.7719323 30.7968526,10.9913793 C30.7968526,11.1058734 30.6871307,11.1965132 30.4676836,11.2633015 C30.2482366,11.3300897 29.8236607,11.4326558 29.1939431,11.5710028 C28.5642255,11.7093499 28.0633213,11.9264084 27.6912154,12.2221848 L23.5837599,15.4280038 C23.5837599,15.5520391 23.6743997,15.7046956 23.855682,15.8859779 L29.7377874,22.0829405 C30.1194344,22.4741287 30.5106167,22.7293513 30.9113461,22.848616 C31.3120755,22.9678807 31.5792244,23.0465942 31.7128008,23.0847589 C31.8463773,23.1229236 31.9131645,23.1897108 31.9131645,23.2851226 C31.9131645,23.4568637 31.8368363,23.542733 31.6841774,23.542733 L25.4013447,23.542733 C25.305933,23.542733 25.2582278,23.4854868 25.2582278,23.3709927 C25.2582278,23.1992516 25.3774907,23.0895297 25.6160201,23.0418238 C26.3316083,22.9082474 26.689397,22.664951 26.689397,22.3119275 C26.689397,22.2069746 26.6178393,22.0686296 26.4747216,21.8968885 C26.331604,21.7251473 26.1980295,21.5581792 26.0739943,21.3959793 L21.6516815,16.716056 C21.6516815,16.7065149 21.646911,16.6969738 21.6373698,16.6874327 L21.6230581,16.6874327 Z" id="Path"></path>
            </g>
        </g>
    </g>
</svg>